<mxfile host="app.diagrams.net" modified="2024-01-11T13:13:55.266Z" agent="Mozilla/5.0 (X11; Ubuntu; Linux x86_64; rv:120.0) Gecko/20100101 Firefox/120.0" etag="SuJ207qpiA8DbkRROcb6" version="22.1.18" type="github">
  <diagram name="Page-1" id="7N6BOnjLWCL92aBEynZF">
    <mxGraphModel dx="2074" dy="1103" grid="1" gridSize="10" guides="1" tooltips="1" connect="1" arrows="1" fold="1" page="1" pageScale="1" pageWidth="1169" pageHeight="827" math="1" shadow="0">
      <root>
        <mxCell id="0" />
        <mxCell id="1" parent="0" />
        <mxCell id="rIWBi2pYtQ52L3yKGh5L-1" value="&lt;div&gt;&lt;font style=&quot;font-size: 25px;&quot;&gt;9 Months&lt;/font&gt;&lt;/div&gt;&lt;br&gt;Range: 8-10 Months" style="rounded=0;whiteSpace=wrap;html=1;fillColor=#dae8fc;strokeColor=#6c8ebf;" vertex="1" parent="1">
          <mxGeometry x="40" y="100" width="120" height="680" as="geometry" />
        </mxCell>
        <mxCell id="rIWBi2pYtQ52L3yKGh5L-2" value="" style="shape=table;startSize=0;container=1;collapsible=0;childLayout=tableLayout;fontSize=22;fillColor=none;" vertex="1" parent="1">
          <mxGeometry x="160" y="100" width="520" height="680" as="geometry" />
        </mxCell>
        <mxCell id="rIWBi2pYtQ52L3yKGh5L-3" value="" style="shape=tableRow;horizontal=0;startSize=0;swimlaneHead=0;swimlaneBody=0;strokeColor=inherit;top=0;left=0;bottom=0;right=0;collapsible=0;dropTarget=0;fillColor=none;points=[[0,0.5],[1,0.5]];portConstraint=eastwest;fontSize=16;" vertex="1" parent="rIWBi2pYtQ52L3yKGh5L-2">
          <mxGeometry width="520" height="302" as="geometry" />
        </mxCell>
        <mxCell id="rIWBi2pYtQ52L3yKGh5L-4" value="4" style="shape=partialRectangle;html=1;whiteSpace=wrap;connectable=0;strokeColor=inherit;overflow=hidden;fillColor=none;top=0;left=0;bottom=0;right=0;pointerEvents=1;fontSize=25;" vertex="1" parent="rIWBi2pYtQ52L3yKGh5L-3">
          <mxGeometry width="140" height="302" as="geometry">
            <mxRectangle width="140" height="302" as="alternateBounds" />
          </mxGeometry>
        </mxCell>
        <mxCell id="rIWBi2pYtQ52L3yKGh5L-5" value="&lt;div&gt;360-degree&amp;nbsp;&lt;/div&gt;&lt;div&gt;bird&#39;s eye view&lt;font style=&quot;font-size: 12px;&quot;&gt; &lt;/font&gt;&lt;font style=&quot;font-size: 25px;&quot;&gt;(BEV)&lt;/font&gt;&lt;br&gt;&lt;/div&gt;" style="shape=partialRectangle;html=1;whiteSpace=wrap;connectable=0;strokeColor=inherit;overflow=hidden;fillColor=none;top=0;left=0;bottom=0;right=0;pointerEvents=1;fontSize=25;" vertex="1" parent="rIWBi2pYtQ52L3yKGh5L-3">
          <mxGeometry x="140" width="380" height="302" as="geometry">
            <mxRectangle width="380" height="302" as="alternateBounds" />
          </mxGeometry>
        </mxCell>
        <mxCell id="rIWBi2pYtQ52L3yKGh5L-6" value="" style="shape=tableRow;horizontal=0;startSize=0;swimlaneHead=0;swimlaneBody=0;strokeColor=inherit;top=0;left=0;bottom=0;right=0;collapsible=0;dropTarget=0;fillColor=none;points=[[0,0.5],[1,0.5]];portConstraint=eastwest;fontSize=16;" vertex="1" parent="rIWBi2pYtQ52L3yKGh5L-2">
          <mxGeometry y="302" width="520" height="76" as="geometry" />
        </mxCell>
        <mxCell id="rIWBi2pYtQ52L3yKGh5L-7" value="1" style="shape=partialRectangle;html=1;whiteSpace=wrap;connectable=0;strokeColor=inherit;overflow=hidden;fillColor=none;top=0;left=0;bottom=0;right=0;pointerEvents=1;fontSize=25;" vertex="1" parent="rIWBi2pYtQ52L3yKGh5L-6">
          <mxGeometry width="140" height="76" as="geometry">
            <mxRectangle width="140" height="76" as="alternateBounds" />
          </mxGeometry>
        </mxCell>
        <mxCell id="rIWBi2pYtQ52L3yKGh5L-8" value="Obstacle detection" style="shape=partialRectangle;html=1;whiteSpace=wrap;connectable=0;strokeColor=inherit;overflow=hidden;fillColor=none;top=0;left=0;bottom=0;right=0;pointerEvents=1;fontSize=25;" vertex="1" parent="rIWBi2pYtQ52L3yKGh5L-6">
          <mxGeometry x="140" width="380" height="76" as="geometry">
            <mxRectangle width="380" height="76" as="alternateBounds" />
          </mxGeometry>
        </mxCell>
        <mxCell id="rIWBi2pYtQ52L3yKGh5L-9" value="" style="shape=tableRow;horizontal=0;startSize=0;swimlaneHead=0;swimlaneBody=0;strokeColor=inherit;top=0;left=0;bottom=0;right=0;collapsible=0;dropTarget=0;fillColor=none;points=[[0,0.5],[1,0.5]];portConstraint=eastwest;fontSize=16;" vertex="1" parent="rIWBi2pYtQ52L3yKGh5L-2">
          <mxGeometry y="378" width="520" height="75" as="geometry" />
        </mxCell>
        <mxCell id="rIWBi2pYtQ52L3yKGh5L-10" value="1" style="shape=partialRectangle;html=1;whiteSpace=wrap;connectable=0;strokeColor=inherit;overflow=hidden;fillColor=none;top=0;left=0;bottom=0;right=0;pointerEvents=1;fontSize=25;" vertex="1" parent="rIWBi2pYtQ52L3yKGh5L-9">
          <mxGeometry width="140" height="75" as="geometry">
            <mxRectangle width="140" height="75" as="alternateBounds" />
          </mxGeometry>
        </mxCell>
        <mxCell id="rIWBi2pYtQ52L3yKGh5L-11" value="Object identification" style="shape=partialRectangle;html=1;whiteSpace=wrap;connectable=0;strokeColor=inherit;overflow=hidden;fillColor=none;top=0;left=0;bottom=0;right=0;pointerEvents=1;fontSize=25;" vertex="1" parent="rIWBi2pYtQ52L3yKGh5L-9">
          <mxGeometry x="140" width="380" height="75" as="geometry">
            <mxRectangle width="380" height="75" as="alternateBounds" />
          </mxGeometry>
        </mxCell>
        <mxCell id="rIWBi2pYtQ52L3yKGh5L-12" style="shape=tableRow;horizontal=0;startSize=0;swimlaneHead=0;swimlaneBody=0;strokeColor=inherit;top=0;left=0;bottom=0;right=0;collapsible=0;dropTarget=0;fillColor=none;points=[[0,0.5],[1,0.5]];portConstraint=eastwest;fontSize=16;" vertex="1" parent="rIWBi2pYtQ52L3yKGh5L-2">
          <mxGeometry y="453" width="520" height="75" as="geometry" />
        </mxCell>
        <mxCell id="rIWBi2pYtQ52L3yKGh5L-13" value="1" style="shape=partialRectangle;html=1;whiteSpace=wrap;connectable=0;strokeColor=inherit;overflow=hidden;fillColor=none;top=0;left=0;bottom=0;right=0;pointerEvents=1;fontSize=25;" vertex="1" parent="rIWBi2pYtQ52L3yKGh5L-12">
          <mxGeometry width="140" height="75" as="geometry">
            <mxRectangle width="140" height="75" as="alternateBounds" />
          </mxGeometry>
        </mxCell>
        <mxCell id="rIWBi2pYtQ52L3yKGh5L-14" value="Testing and bug fixes" style="shape=partialRectangle;html=1;whiteSpace=wrap;connectable=0;strokeColor=inherit;overflow=hidden;fillColor=none;top=0;left=0;bottom=0;right=0;pointerEvents=1;fontSize=25;" vertex="1" parent="rIWBi2pYtQ52L3yKGh5L-12">
          <mxGeometry x="140" width="380" height="75" as="geometry">
            <mxRectangle width="380" height="75" as="alternateBounds" />
          </mxGeometry>
        </mxCell>
        <mxCell id="rIWBi2pYtQ52L3yKGh5L-15" style="shape=tableRow;horizontal=0;startSize=0;swimlaneHead=0;swimlaneBody=0;strokeColor=inherit;top=0;left=0;bottom=0;right=0;collapsible=0;dropTarget=0;fillColor=none;points=[[0,0.5],[1,0.5]];portConstraint=eastwest;fontSize=16;" vertex="1" parent="rIWBi2pYtQ52L3yKGh5L-2">
          <mxGeometry y="528" width="520" height="76" as="geometry" />
        </mxCell>
        <mxCell id="rIWBi2pYtQ52L3yKGh5L-16" value="1" style="shape=partialRectangle;html=1;whiteSpace=wrap;connectable=0;strokeColor=inherit;overflow=hidden;fillColor=none;top=0;left=0;bottom=0;right=0;pointerEvents=1;fontSize=25;" vertex="1" parent="rIWBi2pYtQ52L3yKGh5L-15">
          <mxGeometry width="140" height="76" as="geometry">
            <mxRectangle width="140" height="76" as="alternateBounds" />
          </mxGeometry>
        </mxCell>
        <mxCell id="rIWBi2pYtQ52L3yKGh5L-17" value="Delivery and integration" style="shape=partialRectangle;html=1;whiteSpace=wrap;connectable=0;strokeColor=inherit;overflow=hidden;fillColor=none;top=0;left=0;bottom=0;right=0;pointerEvents=1;fontSize=25;" vertex="1" parent="rIWBi2pYtQ52L3yKGh5L-15">
          <mxGeometry x="140" width="380" height="76" as="geometry">
            <mxRectangle width="380" height="76" as="alternateBounds" />
          </mxGeometry>
        </mxCell>
        <mxCell id="rIWBi2pYtQ52L3yKGh5L-18" style="shape=tableRow;horizontal=0;startSize=0;swimlaneHead=0;swimlaneBody=0;strokeColor=inherit;top=0;left=0;bottom=0;right=0;collapsible=0;dropTarget=0;fillColor=none;points=[[0,0.5],[1,0.5]];portConstraint=eastwest;fontSize=16;" vertex="1" parent="rIWBi2pYtQ52L3yKGh5L-2">
          <mxGeometry y="604" width="520" height="76" as="geometry" />
        </mxCell>
        <mxCell id="rIWBi2pYtQ52L3yKGh5L-19" value="1" style="shape=partialRectangle;html=1;whiteSpace=wrap;connectable=0;strokeColor=inherit;overflow=hidden;fillColor=none;top=0;left=0;bottom=0;right=0;pointerEvents=1;fontSize=25;" vertex="1" parent="rIWBi2pYtQ52L3yKGh5L-18">
          <mxGeometry width="140" height="76" as="geometry">
            <mxRectangle width="140" height="76" as="alternateBounds" />
          </mxGeometry>
        </mxCell>
        <mxCell id="rIWBi2pYtQ52L3yKGh5L-20" value="Documentation and project management" style="shape=partialRectangle;html=1;whiteSpace=wrap;connectable=0;strokeColor=inherit;overflow=hidden;fillColor=none;top=0;left=0;bottom=0;right=0;pointerEvents=1;fontSize=25;" vertex="1" parent="rIWBi2pYtQ52L3yKGh5L-18">
          <mxGeometry x="140" width="380" height="76" as="geometry">
            <mxRectangle width="380" height="76" as="alternateBounds" />
          </mxGeometry>
        </mxCell>
        <mxCell id="rIWBi2pYtQ52L3yKGh5L-21" value="" style="shape=table;startSize=0;container=1;collapsible=0;childLayout=tableLayout;fontSize=16;fillColor=#dae8fc;labelBackgroundColor=none;strokeColor=#6c8ebf;gradientColor=none;rounded=0;fontStyle=1" vertex="1" parent="1">
          <mxGeometry x="40" y="40" width="640" height="60" as="geometry" />
        </mxCell>
        <mxCell id="rIWBi2pYtQ52L3yKGh5L-22" value="" style="shape=tableRow;horizontal=0;startSize=0;swimlaneHead=0;swimlaneBody=0;strokeColor=inherit;top=0;left=0;bottom=0;right=0;collapsible=0;dropTarget=0;fillColor=none;points=[[0,0.5],[1,0.5]];portConstraint=eastwest;fontSize=16;" vertex="1" parent="rIWBi2pYtQ52L3yKGh5L-21">
          <mxGeometry width="640" height="60" as="geometry" />
        </mxCell>
        <mxCell id="rIWBi2pYtQ52L3yKGh5L-23" value="&lt;div style=&quot;font-size: 25px;&quot;&gt;&lt;b&gt;&lt;font style=&quot;font-size: 25px;&quot;&gt;Total time&lt;br&gt;&lt;/font&gt;&lt;/b&gt;&lt;/div&gt;" style="shape=partialRectangle;html=1;whiteSpace=wrap;connectable=0;strokeColor=inherit;overflow=hidden;fillColor=none;top=0;left=0;bottom=0;right=0;pointerEvents=1;fontSize=16;" vertex="1" parent="rIWBi2pYtQ52L3yKGh5L-22">
          <mxGeometry width="120" height="60" as="geometry">
            <mxRectangle width="120" height="60" as="alternateBounds" />
          </mxGeometry>
        </mxCell>
        <mxCell id="rIWBi2pYtQ52L3yKGh5L-24" value="&lt;b&gt;Time per project component in months&lt;/b&gt;" style="shape=partialRectangle;html=1;whiteSpace=wrap;connectable=0;strokeColor=inherit;overflow=hidden;fillColor=none;top=0;left=0;bottom=0;right=0;pointerEvents=1;fontSize=16;" vertex="1" parent="rIWBi2pYtQ52L3yKGh5L-22">
          <mxGeometry x="120" width="140" height="60" as="geometry">
            <mxRectangle width="140" height="60" as="alternateBounds" />
          </mxGeometry>
        </mxCell>
        <mxCell id="rIWBi2pYtQ52L3yKGh5L-25" value="&lt;b&gt;&lt;font style=&quot;font-size: 25px;&quot;&gt;Project component &lt;/font&gt;&lt;/b&gt;" style="shape=partialRectangle;html=1;whiteSpace=wrap;connectable=0;strokeColor=inherit;overflow=hidden;fillColor=none;top=0;left=0;bottom=0;right=0;pointerEvents=1;fontSize=16;" vertex="1" parent="rIWBi2pYtQ52L3yKGh5L-22">
          <mxGeometry x="260" width="380" height="60" as="geometry">
            <mxRectangle width="380" height="60" as="alternateBounds" />
          </mxGeometry>
        </mxCell>
        <mxCell id="rIWBi2pYtQ52L3yKGh5L-76" value="&lt;b&gt;&lt;font style=&quot;font-size: 16px;&quot;&gt;Surrounding System Prerequisites&lt;/font&gt;&lt;/b&gt;" style="swimlane;fontStyle=0;childLayout=stackLayout;horizontal=1;startSize=60;horizontalStack=0;resizeParent=1;resizeParentMax=0;resizeLast=0;collapsible=1;marginBottom=0;whiteSpace=wrap;html=1;rounded=0;fillColor=#dae8fc;strokeColor=#6c8ebf;" vertex="1" parent="1">
          <mxGeometry x="720" y="40" width="160" height="540" as="geometry">
            <mxRectangle x="480" y="40" width="220" height="30" as="alternateBounds" />
          </mxGeometry>
        </mxCell>
        <mxCell id="rIWBi2pYtQ52L3yKGh5L-77" value="System running ROS2" style="text;strokeColor=none;fillColor=none;align=left;verticalAlign=middle;spacingLeft=4;spacingRight=4;overflow=hidden;points=[[0,0.5],[1,0.5]];portConstraint=eastwest;rotatable=0;whiteSpace=wrap;html=1;" vertex="1" parent="rIWBi2pYtQ52L3yKGh5L-76">
          <mxGeometry y="60" width="160" height="30" as="geometry" />
        </mxCell>
        <mxCell id="rIWBi2pYtQ52L3yKGh5L-78" value="Image undistortion node" style="text;strokeColor=none;fillColor=none;align=left;verticalAlign=middle;spacingLeft=4;spacingRight=4;overflow=hidden;points=[[0,0.5],[1,0.5]];portConstraint=eastwest;rotatable=0;whiteSpace=wrap;html=1;" vertex="1" parent="rIWBi2pYtQ52L3yKGh5L-76">
          <mxGeometry y="90" width="160" height="30" as="geometry" />
        </mxCell>
        <mxCell id="rIWBi2pYtQ52L3yKGh5L-85" value="360-degree coverage with RGB cameras" style="text;strokeColor=none;fillColor=none;align=left;verticalAlign=middle;spacingLeft=4;spacingRight=4;overflow=hidden;points=[[0,0.5],[1,0.5]];portConstraint=eastwest;rotatable=0;whiteSpace=wrap;html=1;" vertex="1" parent="rIWBi2pYtQ52L3yKGh5L-76">
          <mxGeometry y="120" width="160" height="40" as="geometry" />
        </mxCell>
        <mxCell id="rIWBi2pYtQ52L3yKGh5L-80" value="Adequate&lt;strong&gt; &lt;/strong&gt;available hardware capacity" style="text;strokeColor=none;fillColor=none;align=left;verticalAlign=middle;spacingLeft=4;spacingRight=4;overflow=hidden;points=[[0,0.5],[1,0.5]];portConstraint=eastwest;rotatable=0;whiteSpace=wrap;html=1;" vertex="1" parent="rIWBi2pYtQ52L3yKGh5L-76">
          <mxGeometry y="160" width="160" height="40" as="geometry" />
        </mxCell>
        <mxCell id="rIWBi2pYtQ52L3yKGh5L-81" value="Accurate extrinsic camera parameters in vessel frame" style="text;strokeColor=none;fillColor=none;align=left;verticalAlign=middle;spacingLeft=4;spacingRight=4;overflow=hidden;points=[[0,0.5],[1,0.5]];portConstraint=eastwest;rotatable=0;whiteSpace=wrap;html=1;" vertex="1" parent="rIWBi2pYtQ52L3yKGh5L-76">
          <mxGeometry y="200" width="160" height="40" as="geometry" />
        </mxCell>
        <mxCell id="rIWBi2pYtQ52L3yKGh5L-82" value="Accurate intrinsic camera parameters" style="text;strokeColor=none;fillColor=none;align=left;verticalAlign=middle;spacingLeft=4;spacingRight=4;overflow=hidden;points=[[0,0.5],[1,0.5]];portConstraint=eastwest;rotatable=0;whiteSpace=wrap;html=1;" vertex="1" parent="rIWBi2pYtQ52L3yKGh5L-76">
          <mxGeometry y="240" width="160" height="30" as="geometry" />
        </mxCell>
        <mxCell id="rIWBi2pYtQ52L3yKGh5L-79" value="Image time synchronization" style="text;strokeColor=none;fillColor=none;align=left;verticalAlign=middle;spacingLeft=4;spacingRight=4;overflow=hidden;points=[[0,0.5],[1,0.5]];portConstraint=eastwest;rotatable=0;whiteSpace=wrap;html=1;" vertex="1" parent="rIWBi2pYtQ52L3yKGh5L-76">
          <mxGeometry y="270" width="160" height="30" as="geometry" />
        </mxCell>
        <mxCell id="rIWBi2pYtQ52L3yKGh5L-86" value="Available pre-trained detection/identification neural network" style="text;strokeColor=none;fillColor=none;align=left;verticalAlign=middle;spacingLeft=4;spacingRight=4;overflow=hidden;points=[[0,0.5],[1,0.5]];portConstraint=eastwest;rotatable=0;whiteSpace=wrap;html=1;" vertex="1" parent="rIWBi2pYtQ52L3yKGh5L-76">
          <mxGeometry y="300" width="160" height="50" as="geometry" />
        </mxCell>
        <mxCell id="rIWBi2pYtQ52L3yKGh5L-83" value="System for transmitting BEV image to ROC" style="text;strokeColor=none;fillColor=none;align=left;verticalAlign=middle;spacingLeft=4;spacingRight=4;overflow=hidden;points=[[0,0.5],[1,0.5]];portConstraint=eastwest;rotatable=0;whiteSpace=wrap;html=1;" vertex="1" parent="rIWBi2pYtQ52L3yKGh5L-76">
          <mxGeometry y="350" width="160" height="40" as="geometry" />
        </mxCell>
        <mxCell id="rIWBi2pYtQ52L3yKGh5L-84" value="Brightness calibration" style="text;strokeColor=none;fillColor=none;align=left;verticalAlign=middle;spacingLeft=4;spacingRight=4;overflow=hidden;points=[[0,0.5],[1,0.5]];portConstraint=eastwest;rotatable=0;whiteSpace=wrap;html=1;" vertex="1" parent="rIWBi2pYtQ52L3yKGh5L-76">
          <mxGeometry y="390" width="160" height="30" as="geometry" />
        </mxCell>
        <mxCell id="rIWBi2pYtQ52L3yKGh5L-124" value="Available pre-trained detection/identification neural network" style="text;strokeColor=none;fillColor=none;align=left;verticalAlign=middle;spacingLeft=4;spacingRight=4;overflow=hidden;points=[[0,0.5],[1,0.5]];portConstraint=eastwest;rotatable=0;whiteSpace=wrap;html=1;" vertex="1" parent="rIWBi2pYtQ52L3yKGh5L-76">
          <mxGeometry y="420" width="160" height="50" as="geometry" />
        </mxCell>
        <mxCell id="rIWBi2pYtQ52L3yKGh5L-125" value="Access to equivalent hardware capabilities as available on the vessel for development and testing" style="text;strokeColor=none;fillColor=none;align=left;verticalAlign=middle;spacingLeft=4;spacingRight=4;overflow=hidden;points=[[0,0.5],[1,0.5]];portConstraint=eastwest;rotatable=0;whiteSpace=wrap;html=1;" vertex="1" parent="rIWBi2pYtQ52L3yKGh5L-76">
          <mxGeometry y="470" width="160" height="70" as="geometry" />
        </mxCell>
        <mxCell id="rIWBi2pYtQ52L3yKGh5L-102" value="" style="rounded=1;whiteSpace=wrap;html=1;fillColor=none;dashed=1;" vertex="1" parent="1">
          <mxGeometry x="920" y="121" width="210" height="380" as="geometry" />
        </mxCell>
        <mxCell id="rIWBi2pYtQ52L3yKGh5L-103" style="edgeStyle=orthogonalEdgeStyle;rounded=0;orthogonalLoop=1;jettySize=auto;html=1;exitX=0.5;exitY=1;exitDx=0;exitDy=0;entryX=0.5;entryY=0;entryDx=0;entryDy=0;" edge="1" parent="1" source="rIWBi2pYtQ52L3yKGh5L-104" target="rIWBi2pYtQ52L3yKGh5L-106">
          <mxGeometry relative="1" as="geometry" />
        </mxCell>
        <mxCell id="rIWBi2pYtQ52L3yKGh5L-104" value="&lt;div&gt;Camera&lt;/div&gt;&lt;div&gt;- Image capture&lt;br&gt;&lt;/div&gt;" style="ellipse;whiteSpace=wrap;html=1;" vertex="1" parent="1">
          <mxGeometry x="940" y="134" width="120" height="80" as="geometry" />
        </mxCell>
        <mxCell id="rIWBi2pYtQ52L3yKGh5L-105" style="edgeStyle=orthogonalEdgeStyle;rounded=0;orthogonalLoop=1;jettySize=auto;html=1;exitX=0.5;exitY=1;exitDx=0;exitDy=0;entryX=0.5;entryY=0;entryDx=0;entryDy=0;" edge="1" parent="1" source="rIWBi2pYtQ52L3yKGh5L-106" target="rIWBi2pYtQ52L3yKGh5L-108">
          <mxGeometry relative="1" as="geometry" />
        </mxCell>
        <mxCell id="rIWBi2pYtQ52L3yKGh5L-106" value="&lt;div&gt;Undistort image&lt;/div&gt;&lt;div&gt;- OpenCV&lt;br&gt;&lt;/div&gt;" style="ellipse;whiteSpace=wrap;html=1;" vertex="1" parent="1">
          <mxGeometry x="940" y="264" width="120" height="80" as="geometry" />
        </mxCell>
        <mxCell id="rIWBi2pYtQ52L3yKGh5L-119" style="edgeStyle=orthogonalEdgeStyle;rounded=0;orthogonalLoop=1;jettySize=auto;html=1;exitX=0.5;exitY=1;exitDx=0;exitDy=0;" edge="1" parent="1" source="rIWBi2pYtQ52L3yKGh5L-108">
          <mxGeometry relative="1" as="geometry">
            <mxPoint x="1000" y="501" as="targetPoint" />
          </mxGeometry>
        </mxCell>
        <mxCell id="rIWBi2pYtQ52L3yKGh5L-108" value="&lt;div&gt;Obstacle detection&lt;/div&gt;&lt;div&gt;&amp;amp;&lt;/div&gt;&lt;div&gt;Object identification&lt;br&gt;&lt;/div&gt;" style="ellipse;whiteSpace=wrap;html=1;" vertex="1" parent="1">
          <mxGeometry x="940" y="394" width="120" height="80" as="geometry" />
        </mxCell>
        <mxCell id="rIWBi2pYtQ52L3yKGh5L-109" style="edgeStyle=orthogonalEdgeStyle;rounded=0;orthogonalLoop=1;jettySize=auto;html=1;exitX=0.5;exitY=1;exitDx=0;exitDy=0;entryX=0.5;entryY=0;entryDx=0;entryDy=0;" edge="1" parent="1" source="rIWBi2pYtQ52L3yKGh5L-110" target="rIWBi2pYtQ52L3yKGh5L-123">
          <mxGeometry relative="1" as="geometry">
            <mxPoint x="1000" y="674" as="targetPoint" />
          </mxGeometry>
        </mxCell>
        <mxCell id="rIWBi2pYtQ52L3yKGh5L-110" value="Make BEV image" style="ellipse;whiteSpace=wrap;html=1;" vertex="1" parent="1">
          <mxGeometry x="940" y="551" width="120" height="80" as="geometry" />
        </mxCell>
        <mxCell id="rIWBi2pYtQ52L3yKGh5L-111" value="" style="endArrow=none;html=1;rounded=0;entryX=0.75;entryY=0;entryDx=0;entryDy=0;exitX=0.75;exitY=1;exitDx=0;exitDy=0;dashed=1;" edge="1" parent="1" source="rIWBi2pYtQ52L3yKGh5L-102" target="rIWBi2pYtQ52L3yKGh5L-102">
          <mxGeometry width="50" height="50" relative="1" as="geometry">
            <mxPoint x="1260" y="684" as="sourcePoint" />
            <mxPoint x="1310" y="634" as="targetPoint" />
          </mxGeometry>
        </mxCell>
        <mxCell id="rIWBi2pYtQ52L3yKGh5L-112" value="&lt;div style=&quot;font-size: 13px;&quot;&gt;&lt;font style=&quot;font-size: 19px;&quot;&gt;One node cluster per camera&lt;/font&gt;&lt;/div&gt;" style="text;html=1;strokeColor=none;fillColor=none;align=center;verticalAlign=middle;whiteSpace=wrap;rounded=0;rotation=-90;" vertex="1" parent="1">
          <mxGeometry x="975" y="299" width="260" height="30" as="geometry" />
        </mxCell>
        <mxCell id="rIWBi2pYtQ52L3yKGh5L-116" style="edgeStyle=orthogonalEdgeStyle;rounded=0;orthogonalLoop=1;jettySize=auto;html=1;entryX=0.5;entryY=0;entryDx=0;entryDy=0;strokeWidth=2;" edge="1" parent="1">
          <mxGeometry relative="1" as="geometry">
            <mxPoint x="1000" y="501" as="sourcePoint" />
            <mxPoint x="1000" y="551" as="targetPoint" />
            <Array as="points">
              <mxPoint x="1000" y="530" />
              <mxPoint x="1000" y="530" />
            </Array>
          </mxGeometry>
        </mxCell>
        <mxCell id="rIWBi2pYtQ52L3yKGh5L-120" value=" $$\times n \:cameras$$" style="edgeLabel;html=1;align=center;verticalAlign=middle;resizable=0;points=[];" vertex="1" connectable="0" parent="rIWBi2pYtQ52L3yKGh5L-116">
          <mxGeometry x="0.0824" relative="1" as="geometry">
            <mxPoint x="43" y="-4" as="offset" />
          </mxGeometry>
        </mxCell>
        <mxCell id="rIWBi2pYtQ52L3yKGh5L-123" value="&lt;div&gt;Transmit BEV&amp;nbsp;&lt;/div&gt;&lt;div&gt;image to ROC&lt;/div&gt;" style="ellipse;whiteSpace=wrap;html=1;dashed=1;" vertex="1" parent="1">
          <mxGeometry x="940" y="672" width="120" height="80" as="geometry" />
        </mxCell>
        <mxCell id="rIWBi2pYtQ52L3yKGh5L-127" value="&lt;b&gt;&lt;font style=&quot;font-size: 16px;&quot;&gt;System Pipeline Overview&lt;/font&gt;&lt;/b&gt;" style="text;html=1;strokeColor=#6c8ebf;fillColor=#dae8fc;align=center;verticalAlign=middle;whiteSpace=wrap;rounded=0;" vertex="1" parent="1">
          <mxGeometry x="920" y="40" width="210" height="60" as="geometry" />
        </mxCell>
      </root>
    </mxGraphModel>
  </diagram>
</mxfile>
